:SAMPLES-PER-SECOND 30
:FRAME-RANGE 1-3535
:FULLY-SPECIFIED
:DEGREES
2210
root  -21.052 38.4126 67.4169 -161.303 -73.2826 168.204
RightUpLeg  -14.7936 4.79168 -13.7033
RightLeg  48.4815 -8.4347 -10.3866
RightFoot  -12.3376 -0.0242472 6.84498
RightToes  5.38503e-012 1.26228e-014 -6.01869e-014
Spine  1.11227 -0.557693 -11.1064
Spine1  5.19699 -0.600173 -1.96661
HEad  19.297 -31.5762 4.07538
LeftShoulder1  1.20785 -1.1546 -20.928
LeftArm  1.74571 1.08158 -50.8784
LeftForeArm  32.2094 -4.49395 -12.3699
LeftHand  -0.0283402 5.27259 9.0858
RightShoulder  1.48307 1.55163 24.3997
RightArm  -21.0786 7.20677 54.4601
RightForeArm  53.1009 -5.39529 5.65478
RightHand  0.344356 -6.98779 -25.1654
LeftUpLeg  -18.639 1.12295 -2.87261
LeftLeg  23.3087 4.68706 2.58249
LeftFoot  -18.3066 -0.503826 -10.0573
LeftToes  8.9788e-011 3.29689e-010 2.1201e-011
2211
root  -21.9087 38.5084 67.4697 -159.66 -75.7972 166.337
RightUpLeg  -17.1517 5.26751 -11.6422
RightLeg  51.7351 -4.14229 -5.97314
RightFoot  -12.7905 0.0031388 7.11147
RightToes  5.38503e-012 1.26228e-014 -6.01869e-014
Spine  0.560689 -1.39253 -12.5287
Spine1  4.8595 -1.75463 -0.860163
HEad  20.9699 -29.6913 3.72928
LeftShoulder1  1.25856 -1.26062 -21.4426
LeftArm  1.0202 2.8836 -49.5524
LeftForeArm  34.3319 -1.14739 -12.9516
LeftHand  -0.0173658 5.43322 8.42707
RightShoulder  1.28641 0.792151 25.268
RightArm  -20.9942 2.75776 54.4334
RightForeArm  56.4038 -6.20609 6.05421
RightHand  0.324815 -7.01118 -23.6096
LeftUpLeg  -16.5541 1.21885 -3.24926
LeftLeg  21.8261 2.34697 1.49222
LeftFoot  -18.2142 -0.433051 -9.01205
LeftToes  8.9788e-011 3.29689e-010 2.1201e-011
2212
root  -22.7888 38.5776 67.5024 -158.757 -77.9476 165.484
RightUpLeg  -19.6843 5.9231 -9.25271
RightLeg  52.6032 -1.33305 -2.24085
RightFoot  -12.5739 -0.00296778 7.65918
RightToes  5.38503e-012 1.26228e-014 -6.01869e-014
Spine  0.0485413 -2.0215 -13.3935
Spine1  4.41386 -2.56154 0.109803
HEad  21.4557 -27.8299 4.0177
LeftShoulder1  1.26199 -1.2283 -21.7321
LeftArm  0.4209 4.03047 -48.7796
LeftForeArm  35.7149 2.65524 -13.27
LeftHand  0.00026881 5.75652 7.37679
RightShoulder  1.1651 0.339174 25.8421
RightArm  -20.9251 -1.84524 54.3436
RightForeArm  62.8059 -6.0653 6.50823
RightHand  0.24325 -6.73831 -21.672
LeftUpLeg  -14.6752 2.78345 -2.99424
LeftLeg  20.5871 -0.899132 -0.275641
LeftFoot  -18.8173 -0.42019 -8.14512
LeftToes  8.9788e-011 3.29689e-010 2.1201e-011
2213
root  -23.6801 38.6277 67.5567 -160.13 -79.3712 166.791
RightUpLeg  -21.8892 6.91653 -6.76826
RightLeg  50.9883 -0.478559 -0.982894
RightFoot  -13.2227 0.0643865 9.38018
RightToes  5.38503e-012 1.26228e-014 -6.01869e-014
Spine  -0.148428 -2.34094 -13.383
Spine1  3.90172 -2.88574 0.564202
HEad  21.1738 -25.5079 4.62783
LeftShoulder1  1.2693 -1.20916 -22.0296
LeftArm  -0.497306 5.03599 -48.053
LeftForeArm  36.3379 5.97487 -13.2336
LeftHand  0.0153479 6.1567 6.26959
RightShoulder  1.05321 -0.0954736 26.6926
RightArm  -21.7985 -5.29699 54.3608
RightForeArm  71.2622 -5.71842 6.32745
RightHand  0.133121 -6.22466 -20.0191
LeftUpLeg  -12.5633 3.71247 -2.42265
LeftLeg  19.422 -2.88741 -1.35815
LeftFoot  -19.5057 -0.38694 -7.05198
LeftToes  8.9788e-011 3.29689e-010 2.1201e-011
2214
root  -24.5841 38.6837 67.6317 -164.206 -80.4453 170.656
RightUpLeg  -23.6502 8.17991 -4.09999
RightLeg  47.2501 -1.93912 -2.56021
RightFoot  -13.2395 0.0611368 9.10846
RightToes  5.38503e-012 1.26228e-014 -6.01869e-014
Spine  -0.160375 -2.5943 -12.7414
Spine1  3.5169 -3.09327 0.938079
HEad  20.5125 -22.8905 5.30419
LeftShoulder1  1.25961 -1.12518 -22.3627
LeftArm  -1.53668 5.9005 -47.4716
LeftForeArm  35.9329 7.82281 -13.2078
LeftHand  0.0275814 6.55904 5.5892
RightShoulder  1.04241 -0.198235 27.4544
RightArm  -23.2672 -8.15854 54.6269
RightForeArm  78.3691 -5.33455 5.76266
RightHand  0.298643 -7.38609 -18.2105
LeftUpLeg  -10.2515 4.39853 -1.63993
LeftLeg  18.2482 -4.32414 -1.91331
LeftFoot  -19.8351 -0.313269 -5.8155
LeftToes  8.9788e-011 3.29689e-010 2.1201e-011
2215
root  -25.5075 38.7619 67.7001 -169.893 -81.4717 176.011
RightUpLeg  -24.7361 9.2761 -1.48035
RightLeg  41.5994 -5.27353 -5.26862
RightFoot  -12.0583 -0.0305038 8.21799
RightToes  5.38503e-012 1.26228e-014 -6.01869e-014
Spine  -0.0397164 -2.81974 -11.8838
Spine1  3.29987 -3.30254 1.51139
HEad  19.8429 -20.3701 6.0446
LeftShoulder1  1.30663 -1.24375 -22.6737
LeftArm  -2.81729 6.79595 -47.0385
LeftForeArm  35.1756 7.8406 -13.2065
LeftHand  0.0279271 6.75113 4.97267
RightShoulder  1.04953 -0.25847 28.3824
RightArm  -25.8615 -10.205 54.7523
RightForeArm  85.033 -4.8076 4.3211
RightHand  0.484699 -8.72324 -17.4771
LeftUpLeg  -7.61227 4.88895 -0.811673
LeftLeg  16.7065 -5.56357 -2.05988
LeftFoot  -19.8722 -0.218848 -4.52961
LeftToes  8.9788e-011 3.29689e-010 2.1201e-011
2216
root  -26.4557 38.7818 67.7604 -175.18 -82.446 -178.932
RightUpLeg  -25.4949 9.75851 0.634298
RightLeg  34.5139 -8.91127 -6.76924
RightFoot  -9.94486 -0.156305 7.26502
RightToes  5.38503e-012 1.26228e-014 -6.01869e-014
Spine  -0.124621 -3.09943 -11.0626
Spine1  3.42557 -3.54411 2.02639
HEad  19.1485 -17.7342 6.48387
LeftShoulder1  1.33343 -1.30652 -22.8753
LeftArm  -4.34454 7.61244 -46.9472
LeftForeArm  34.2859 7.83556 -12.9031
LeftHand  0.0272372 6.85157 4.64725
RightShoulder  1.05346 -0.315274 29.1911
RightArm  -28.7097 -11.934 54.7408
RightForeArm  89.4605 -4.32337 2.61065
RightHand  0.489605 -9.24372 -15.4202
LeftUpLeg  -5.10604 4.86715 -0.328142
LeftLeg  15.2493 -6.45137 -1.68819
LeftFoot  -20.3233 -0.181443 -3.86044
LeftToes  8.9788e-011 3.29689e-010 2.1201e-011
2217
root  -27.4347 38.7509 67.8271 179.857 -83.2709 -174.049
RightUpLeg  -26.0361 9.37478 2.33425
RightLeg  26.2876 -10.9473 -6.03701
RightFoot  -7.12712 -0.270066 6.01571
RightToes  5.38503e-012 1.26228e-014 -6.01869e-014
Spine  -0.24933 -3.31154 -10.1184
Spine1  3.49159 -3.70889 2.45006
HEad  18.2468 -15.7313 6.74292
LeftShoulder1  1.30339 -1.19572 -22.9216
LeftArm  -4.89223 8.27527 -47.1968
LeftForeArm  33.2734 7.838 -12.8111
LeftHand  0.02922 6.95212 4.54087
RightShoulder  1.02984 -0.418359 29.6359
RightArm  -30.8597 -13.4445 54.6303
RightForeArm  90.8255 -4.05102 1.36325
RightHand  0.400207 -9.17999 -13.0904
LeftUpLeg  -2.88866 4.9537 0.122584
LeftLeg  14.1418 -7.26485 -1.61794
LeftFoot  -20.8276 -0.122332 -2.97933
LeftToes  8.9788e-011 3.29689e-010 2.1201e-011
2218
root  -28.4607 38.6321 67.8944 178.424 -83.8558 -172.616
RightUpLeg  -26.4807 7.48269 3.65843
RightLeg  17.8142 -9.19419 -3.48776
RightFoot  -5.28833 -0.330816 5.57056
RightToes  5.38503e-012 1.26228e-014 -6.01869e-014
Spine  -0.398775 -3.32038 -9.24201
Spine1  3.39548 -3.5942 2.4652
HEad  17.3536 -14.6241 6.75774
LeftShoulder1  1.27057 -1.06948 -23.0111
LeftArm  -5.2766 8.6644 -47.5743
LeftForeArm  33.6515 7.81033 -12.6702
LeftHand  0.0238149 6.89724 4.29538
RightShoulder  1.01143 -0.477128 29.7233
RightArm  -32.1878 -14.91 54.4718
RightForeArm  90.604 -3.94556 0.681125
RightHand  0.348882 -9.10481 -11.8244
LeftUpLeg  -1.14004 4.97586 0.0397753
LeftLeg  13.7597 -7.36523 -1.64902
LeftFoot  -20.7331 0.0597877 -0.786491
LeftToes  8.9788e-011 3.29689e-010 2.1201e-011
2219
root  -29.5596 38.4234 67.9547 178.988 -84.1848 -173.164
RightUpLeg  -26.7459 5.6591 4.67155
RightLeg  9.98894 -5.70459 -1.24846
RightFoot  -5.5207 -0.338394 5.91067
RightToes  5.38503e-012 1.26228e-014 -6.01869e-014
Spine  -0.981064 -3.17513 -8.06941
Spine1  3.79335 -3.22553 1.89834
HEad  16.3184 -14.4623 6.46601
LeftShoulder1  1.25746 -1.01241 -23.0955
LeftArm  -4.66694 8.91237 -47.9956
LeftForeArm  33.5054 7.83236 -12.7982
LeftHand  0.0250243 6.85119 4.48911
RightShoulder  1.01638 -0.451994 29.5798
RightArm  -32.5508 -15.6266 54.3045
RightForeArm  89.9461 -3.94751 0.515458
RightHand  0.403312 -9.29461 -12.8227
LeftUpLeg  0.61657 4.55905 -0.529382
LeftLeg  13.6942 -6.857 -1.13984
LeftFoot  -21.4867 0.150495 0.242517
LeftToes  8.9788e-011 3.29689e-010 2.1201e-011
2220
root  -30.7147 38.1815 68.0007 179.87 -84.5848 -174.354
RightUpLeg  -26.8313 6.66652 4.25158
RightLeg  3.6482 -6.01978 -0.362297
RightFoot  -6.01811 -0.348521 6.60741
RightToes  5.38503e-012 1.26228e-014 -6.01869e-014
Spine  -1.21339 -2.95226 -6.95582
Spine1  4.22394 -2.88396 1.46569
HEad  15.2666 -15.2215 5.98165
LeftShoulder1  1.24316 -0.943444 -23.2389
LeftArm  -3.8607 9.02039 -48.4731
LeftForeArm  33.3655 7.85141 -12.9078
LeftHand  0.0174377 6.59876 4.57368
RightShoulder  1.03706 -0.37269 29.3211
RightArm  -32.5873 -15.7007 53.9229
RightForeArm  88.5042 -4.01728 0.539431
RightHand  0.260915 -8.21787 -11.821
LeftUpLeg  2.74596 4.14768 -1.09604
LeftLeg  13.7693 -6.37813 -0.61712
LeftFoot  -22.2281 0.246058 1.18137
LeftToes  8.9788e-011 3.29689e-010 2.1201e-011
2221
root  -31.9433 37.906 68.033 -177.502 -85.5739 -177.507
RightUpLeg  -26.704 6.35706 3.74723
RightLeg  -0.186249 -8.46609 0.480561
RightFoot  -6.66402 -0.311615 6.51153
RightToes  5.38503e-012 1.26228e-014 -6.01869e-014
Spine  -1.40121 -2.87906 -6.01798
Spine1  4.76025 -2.79918 1.2414
HEad  14.5132 -16.7843 5.26295
LeftShoulder1  1.30464 -1.10466 -23.5823
LeftArm  -2.85521 8.99242 -48.8372
LeftForeArm  32.8928 7.87614 -13.0361
LeftHand  0.00947314 6.34745 4.65339
RightShoulder  1.05498 -0.296371 29.0165
RightArm  -31.6508 -15.1857 53.3926
RightForeArm  87.8623 -4.13221 1.04508
RightHand  0.35651 -8.7455 -13.2295
LeftUpLeg  5.15328 3.94786 -1.44649
LeftLeg  14.0398 -6.68817 -0.649137
LeftFoot  -23.0893 0.331552 1.87417
LeftToes  8.9788e-011 3.29689e-010 2.1201e-011
